<svg width="725" height="113" viewBox="0 0 725 113" fill="none" xmlns="http://www.w3.org/2000/svg">
<path d="M491.018 0.764511C491.249 0.565969 495.335 0.367427 501.168 0.268156C506.539 0.168885 511.054 0.0365236 511.219 0.00343319C511.351 -0.0296572 511.812 0.168885 513.097 0.929963V44.9401L546.315 45.0063C564.572 45.0725 579.566 45.0394 579.665 44.9401C579.764 44.8409 579.731 35.013 579.632 23.1005C579.434 1.45941 579.434 1.42632 580.126 0.830692C580.752 0.301246 581.675 0.235066 590.968 0.268156C597.032 0.268156 601.349 0.400517 601.744 0.59906C602.403 0.929963 602.403 1.26087 602.403 56.3563C602.403 88.6525 602.271 112.014 602.107 112.345C601.843 112.908 600.986 112.941 591.298 112.941C582.4 112.941 580.653 112.875 580.192 112.444C579.665 111.981 579.632 110.261 579.665 90.1747C579.665 71.1477 579.599 68.4012 579.171 68.2688C578.907 68.1696 564.143 68.1034 546.381 68.1034C528.619 68.1034 513.855 68.1696 513.592 68.2688C513.163 68.4012 513.097 71.1477 513.097 90.1747C513.097 103.312 512.966 112.147 512.768 112.444C512.504 112.875 510.988 112.941 501.827 112.875C495.961 112.808 491.084 112.676 490.919 112.544C490.787 112.378 490.688 87.2627 490.688 56.6872C490.688 18.0377 490.787 0.996144 491.018 0.764511Z" fill="#E30074"/>
<path d="M631.568 0.433608L674.903 0.268156C698.728 0.168885 719.49 0.0696139 721.038 0.0365235C723.576 -0.0296572 723.905 0.0365235 724.433 0.698331C724.96 1.36014 725.026 2.31976 724.993 11.8498C724.993 17.806 724.861 22.4718 724.663 22.7696C724.4 23.1998 718.962 23.299 635.588 23.5969L635.654 33.1931C635.72 39.414 635.621 43.1202 635.39 43.6827C635.127 44.3776 635.127 44.6754 635.456 44.8409C635.654 44.9732 655.657 45.0394 679.846 44.9732C720.083 44.874 723.872 44.907 724.433 45.4034C724.927 45.8998 724.993 46.8594 724.993 56.3563C724.993 62.6435 724.861 67.0445 724.663 67.4416C724.334 68.1034 724.004 68.1034 680.109 68.1034C653.713 68.1034 635.654 68.2358 635.357 68.4343C634.929 68.6659 634.929 68.9306 635.259 69.9895C635.555 70.8499 635.687 73.9273 635.687 79.7512C635.687 84.814 635.555 88.5532 635.357 88.9503C635.061 89.5129 635.16 89.6452 635.951 89.8438C636.445 89.943 656.448 89.943 680.406 89.8438C718.929 89.6452 724.07 89.6783 724.499 90.1085C724.927 90.5387 724.993 92.2263 724.993 101.26C724.993 107.415 724.861 112.147 724.663 112.444C724.4 112.875 718.995 112.941 632.886 112.742L629.755 111.882C628.042 111.419 625.801 110.591 624.812 110.029C623.823 109.466 622.209 108.341 621.22 107.514C620.231 106.687 618.913 105.231 618.221 104.337C617.562 103.411 616.607 101.922 616.112 101.028C615.618 100.102 614.827 98.0502 613.476 93.4175V56.5218C613.476 24.9867 613.542 19.2951 613.97 17.3097C614.267 15.9861 615.058 13.9345 615.816 12.5116C616.574 11.1549 617.661 9.43419 618.221 8.7062C618.814 7.97821 620.231 6.62151 621.418 5.72807C622.604 4.80154 624.186 3.67646 624.944 3.18011C625.669 2.65066 627.481 1.85649 631.568 0.433608Z" fill="#E30074"/>
<path d="M14.4999 1.85649C15.4885 1.4925 17.0703 1.02923 17.9601 0.764511C19.3112 0.400518 27.6156 0.301246 65.513 0.301246C105.882 0.268156 111.451 0.334337 111.88 0.764511C112.308 1.19469 112.374 2.8492 112.374 11.5851C112.374 20.0562 112.308 22.0747 111.913 22.6041C111.452 23.2641 110.96 23.2659 23.775 23.5941L23.035 23.5969L23.068 55.3636C23.1009 77.7989 23.002 87.4282 22.7384 88.1231C22.4418 88.9503 22.4748 89.182 22.9691 89.5459C23.4634 89.9099 31.0429 89.9761 67.2925 89.8107C110.759 89.6121 111.056 89.6121 111.715 90.2739C112.341 90.9026 112.374 91.3659 112.374 101.26C112.374 109.102 112.275 111.75 111.978 112.213C111.583 112.775 109.441 112.808 66.0732 112.775C37.7985 112.775 19.9044 112.643 18.7839 112.444C17.7953 112.279 15.9169 111.783 14.6646 111.352C13.4124 110.922 11.7317 110.161 10.9738 109.698C10.1829 109.202 8.43628 107.713 7.0522 106.389C5.60222 105.032 3.98746 103.08 3.29542 101.856C2.60338 100.664 1.9443 99.3407 1.81248 98.8774C1.68067 98.4142 1.38408 97.5869 1.1534 97.0574C0.922718 96.528 0.560222 94.9066 0.362496 93.4837C0.131817 91.7961 0 79.1887 0 55.86C0 26.7404 0.0659084 20.4202 0.461359 18.534C0.724993 17.3097 1.35112 15.3574 1.84544 14.1661C2.33975 12.9749 3.39429 11.1218 4.15223 10.0298C4.91018 8.93783 6.32721 7.3164 7.28288 6.42296C8.27151 5.52952 9.88627 4.30518 10.8749 3.64337C11.8635 3.01466 13.5112 2.22049 14.4999 1.85649Z" fill="#E30074"/>
<path d="M122.524 37.7264C122.623 5.76116 122.689 1.1616 123.117 0.731421C123.545 0.334337 125.424 0.268156 134.157 0.268156C143.746 0.268156 144.702 0.334337 145.196 0.830692C145.658 1.36014 145.724 3.67646 145.658 23.1005C145.658 35.013 145.658 44.8078 145.724 44.8409C145.789 44.874 160.487 44.9071 178.447 44.9401C196.407 44.9401 211.335 44.9732 211.665 44.9401C212.192 44.9401 212.225 44.0467 212.06 29.4539C211.962 20.9496 211.797 11.1549 211.698 7.71349C211.533 2.12122 211.566 1.36014 212.06 0.830692C212.555 0.334337 213.543 0.268156 223.298 0.268156C233.052 0.268156 234.008 0.334337 234.535 0.830692C235.03 1.36014 235.03 2.15431 234.766 9.0371C234.634 13.2065 234.502 34.8807 234.535 57.1836C234.535 79.4865 234.667 100.863 234.799 104.668C235.062 111.22 235.03 111.65 234.436 112.312C233.81 112.974 233.58 113.007 223.1 112.941C213.049 112.875 212.357 112.808 211.962 112.246C211.599 111.75 211.566 110.492 211.764 106.157C211.896 103.146 211.995 93.4175 212.06 68.2688L179.436 68.1696C161.476 68.1365 146.514 68.1696 146.152 68.2358C145.493 68.4012 145.493 68.6328 145.592 90.2739C145.658 109.334 145.592 112.18 145.163 112.61C144.735 113.04 143.219 113.073 133.893 112.908C126.215 112.775 123.018 112.61 122.853 112.345C122.754 112.114 122.59 103.477 122.524 93.0866C122.458 82.6962 122.458 57.8123 122.524 37.7264Z" fill="#E30074"/>
<path d="M260.503 1.65795C262.151 1.09541 263.766 0.565969 264.128 0.499789C264.491 0.400517 285.45 0.334337 310.692 0.301246C353.994 0.268156 356.598 0.301246 357.092 0.830692C357.553 1.32705 357.619 1.85649 357.422 3.74264C357.323 5.00008 357.125 9.76509 356.993 14.3316C356.795 21.0158 356.664 22.6703 356.268 23.0343C355.873 23.3652 347.008 23.4314 312.604 23.4314H267.588V34.1858C267.588 44.1791 267.621 44.9401 268.181 45.0394C268.478 45.1056 288.251 45.0725 312.077 45.0063C344.503 44.874 355.609 44.9401 356.894 45.6019V56.1909C356.894 62.5773 356.762 67.0445 356.565 67.4416C356.235 68.1034 355.906 68.1034 312.406 68.1034C288.317 68.1034 268.346 68.1696 268.083 68.2688C267.654 68.4012 267.588 69.8903 267.588 79.0232C267.588 88.818 267.621 89.6121 268.181 89.7776C268.478 89.8768 288.481 89.9761 312.571 89.943C347.964 89.9099 356.433 90.0092 356.598 90.3401C356.729 90.5717 356.927 94.1124 357.026 98.2156C357.125 102.319 357.323 106.985 357.422 108.639C357.553 110.856 357.52 111.783 357.158 112.213C356.762 112.775 354.719 112.808 310.923 112.775C265.875 112.775 265.084 112.742 262.48 112.08C261.03 111.716 259.185 111.088 258.361 110.691C257.537 110.294 255.758 109.135 254.407 108.143C253.055 107.117 251.605 105.859 251.21 105.33C250.782 104.768 250.32 104.172 250.188 104.006C250.024 103.841 249.496 103.014 248.969 102.186C248.475 101.359 247.585 99.5061 246.003 95.4029L245.904 57.349C245.839 23.8947 245.871 19.0966 246.333 17.7068C246.596 16.8464 246.827 15.7544 246.827 15.225C246.794 14.7286 247.091 13.9676 247.42 13.5043C247.783 13.041 248.409 12.0152 248.804 11.188C249.233 10.3607 250.386 8.83856 251.408 7.77967C252.429 6.68769 254.209 5.13244 255.395 4.239C256.779 3.2132 258.592 2.31976 260.503 1.65795Z" fill="#E30074"/>
<path d="M382.928 1.75722C384.279 1.29396 386.059 0.797602 386.883 0.63215C387.706 0.466698 408.599 0.334337 433.348 0.301246C472.926 0.268156 478.429 0.334337 479.814 1.26087L479.748 11.6843C479.649 21.0489 479.583 22.1409 479.089 22.7696C478.495 23.4314 478.331 23.4314 390.508 23.4314L390.178 24.2587C389.958 24.8102 389.958 25.3065 390.178 25.7477C390.376 26.1779 390.508 37.5941 390.475 89.7776H434.633C470.455 89.7776 478.858 89.8438 479.22 90.2078C479.55 90.5387 479.682 93.0535 479.748 101.128C479.814 109.202 479.748 111.75 479.418 112.213C479.023 112.775 476.946 112.808 433.513 112.775C388.893 112.775 387.97 112.742 385.235 112.08C383.686 111.716 381.61 111.022 380.621 110.525C379.633 110.029 377.919 108.904 376.832 107.977C375.711 107.084 374.294 105.727 373.668 104.999C373.042 104.271 372.02 103.014 371.46 102.186C370.867 101.359 370.405 100.499 370.405 100.267C370.405 100.069 370.043 99.1091 369.582 98.2156C369.12 97.2891 368.758 96.0647 368.758 95.4691C368.725 94.9066 368.527 94.0462 368.263 93.583C367.868 92.8881 367.802 87.2958 367.802 56.3563C367.802 25.4168 367.868 19.8246 368.263 19.1297C368.527 18.6664 368.758 17.773 368.758 17.1442C368.758 16.5155 369.153 15.3905 369.582 14.6625C370.043 13.9345 370.405 13.1072 370.405 12.8425C370.405 12.5778 371.032 11.4527 371.855 10.3607C372.646 9.26873 373.997 7.74658 374.887 6.95241C375.777 6.19133 377.392 4.86772 378.479 4.04046C379.699 3.11393 381.412 2.25358 382.928 1.75722Z" fill="#E30074"/>
</svg>
